<svg width="90" xmlns="http://www.w3.org/2000/svg" viewBox="0 0 68 20">
    <style type="text/css">
        .st0 {
        fill: #fff;
        }
    </style>
    <g transform="translate(0.000000,485.000000) scale(0.100000,-0.100000)">
        <path class="st0"
              d="M482.4,4817.1c-1.9-4.2-3.5-8.7-3.9-10.7s-0.4-2.5,0-3.6c0.5-1.7,1.6-2.5,3.4-2.5c2.9,0,5.2,2.3,5.7,5.7   c0.4,2.7-0.5,4.5-3.6,6.7l-1,0.8l0.4,2c0.3,1.4,0.3,2.2,0.1,2.5C483.1,4818.5,483,4818.4,482.4,4817.1z M482.8,4807.9   c0.5-0.2,1.3-0.8,1.7-1.3c0.7-0.8,0.7-0.9,0.1-1.3c-0.7-0.5-3.3-0.5-3.8,0c-0.4,0.4-0.5,1.7-0.2,2.5   C481,4808.5,481.5,4808.5,482.8,4807.9z"></path>
        <path class="st0"
              d="M458.6,4815c-1-0.4-5.5-1.9-10-3.2c-32.6-9.9-104.9-36-114-41.2c-4-2.3-6.8-5.3-8.2-8.8l-0.5-1.3l0.8,0.2   c1,0.3,1.4,0.5,16.1,6.6c35.6,15,70.1,27.4,109.9,39.6l3.1,1l2.2,2.5c2.2,2.6,3.2,4.1,3.2,5C461.2,4816,460.8,4815.9,458.6,4815z"></path>
        <path class="st0"
              d="M561.4,4812.8c-0.5-0.5-1.2-1.3-1.5-2c-0.8-1.5-2-5.6-2.5-8.1l-0.4-2.1l-1.4,2.6c-2.5,4.6-6.1,7.4-7.8,5.9   c-0.8-0.7-1.2-1.7-1.5-3.7l-0.3-1.6l1.1-0.4c0.6-0.3,2-0.7,2.9-0.8c1.7-0.4,1.9-0.5,3-2.2c1.2-1.8,2.5-4.9,3-7.3l0.3-1.3l0.8,0.7   c1.1,1,1.6,3.2,2,8.3c0.3,4.8,0.8,6.6,2.2,7.8l0.7,0.6l0.8-1c1.1-1.3,1.5-1.3,2.1,0.1c0.8,2.1,0.4,4.4-1,5   C562.9,4813.8,562.5,4813.7,561.4,4812.8z"></path>
        <path class="st0"
              d="M306.7,4811.9c-1.1-1.2-2-3.7-2.9-8c-0.4-2-0.8-3.8-0.8-3.9c-0.1-0.1-0.6,0.8-1.3,2.2c-1.6,3.1-4.6,6.3-6.7,7   c-0.8,0.3-1.7,0.5-1.9,0.5c-0.5,0-1-1.6-1.2-4l-0.2-1.7l2-1.1c1.1-0.7,2.5-1.3,3.2-1.4c1.1-0.2,1.4-0.5,2.5-2.2   c0.7-1,1.7-3.2,2.3-4.7c0.5-1.5,1.2-2.7,1.3-2.6c0.5,0.2,1.4,2.3,1.7,4.3c0.1,1.1,0.4,3.6,0.6,5.7c0.2,2.7,0.5,4.1,0.9,5   c0.8,1.6,1.1,1.7,2.1,1c0.5-0.4,1-0.7,1.1-0.7c0.4,0,1.4,2.4,1.5,3.3c0,0.8-1.2,1.9-2.4,2.2   C307.7,4812.7,307.4,4812.6,306.7,4811.9z"></path>
        <path class="st0"
              d="M636.6,4810.7c-0.8-0.4-3.3-1.2-5.5-1.8c-2.2-0.6-6.3-1.9-9.2-2.8s-8.3-2.5-12.1-3.5   c-15.3-4.2-31.5-9-48.7-14.6c-21.1-6.8-22.6-7.4-24.6-9.8c-1.9-2.2-2.6-6-1.4-7.3c1.3-1.3,5.9-2.9,7.1-2.4c0.3,0.1,0.7,0.9,0.8,1.8   c0.4,1.5,0.4,1.6-0.3,2.2c-0.4,0.3-1.4,0.7-2.4,0.9c-2,0.4-3.5,1.1-3.3,1.5s5,2.6,8.5,4c4.5,1.8,10.5,3.7,22.9,7.2   c6.3,1.8,14.5,4.2,18.3,5.5c7.5,2.5,12.1,3.9,22,6.5c3.6,1,8.8,2.5,11.7,3.5s7.1,2.2,9.4,2.7c7.5,1.7,9.2,2.7,9.2,5.6   C638.9,4811.7,638.8,4811.7,636.6,4810.7z"></path>
        <path class="st0"
              d="M270.1,4810.1c-2-0.9-3.4-2.6-4-4.7c-0.7-2.3-0.1-3.8,1.7-5.2c0.8-0.5,1.8-1.3,2.3-1.7l0.9-0.7l-3.2-3.2   c-3.6-3.6-7-6.4-15.5-13c-3.2-2.5-6.5-5-7.2-5.6c-1.3-1.1-1.4-1.2-0.5-1c1.3,0.3,5.6,2.4,7.8,3.7c2.9,1.9,10.8,7.9,13.8,10.6   c1.5,1.4,3.6,3.5,4.6,4.6c1,1.2,2,2.2,2,2.2c0.1,0,0.7-0.4,1.2-0.8s1.1-0.7,1.4-0.7c0.2,0.1,0.6,1,0.9,2c0.5,1.6,0.5,1.8,0.1,2   c-1,0.6-1.4,2-1.4,5.5c0,2.4-0.2,3.9-0.5,5c-0.5,1.4-0.6,1.5-1.6,1.6C272.1,4810.8,271,4810.6,270.1,4810.1z M271.9,4805.6   c0.5-0.7,0.7-2.7,0.3-2.7c-0.5,0-2.3,1.3-2.5,1.8c-0.1,0.3,0.1,0.7,0.5,1.1C271.1,4806.4,271.4,4806.4,271.9,4805.6z"></path>
        <path class="st0"
              d="M466.5,4807.9c-0.7-1.7-1.5-3.8-1.8-4.8l-0.5-1.8l0.8-1.8c0.7-1.4,0.9-2.6,1.1-5.6c0.4-4.7,1.5-10.9,4.6-27   c2.1-10.4,4-21.8,4.7-26.6c0.1-1.1,0.1-1.2-1-1.5c-0.6-0.1-3.8-0.6-7.1-0.9c-11.6-1.2-12.9-1.5-14.8-3.5c-1.4-1.4-3.2-5-3.5-7   l-0.2-1.4l1.8,0.3c2.7,0.4,12.4,0.4,16,0c1.7-0.2,4.2-0.7,5.7-1c1.4-0.4,4.8-0.8,7.4-1.2l4.8-0.5l-2.6-1.7   c-4.6-3-10.2-5.4-15.6-6.8c-3.1-0.7-8.4-0.9-10.4-0.3c-3.3,1-5.9,3.9-6.5,7.5c-0.2,1-0.4,2-0.5,2c-0.4,0.4-2.5-2.2-3.6-4.6   c-1.6-3.5-2.5-4.5-4.4-5.4c-1.8-0.8-4.6-1-6-0.3c-2.2,1.1-2.8,3-2,6.5c0.3,1.3,0.5,2.5,0.4,2.8c-0.1,0.8-2.5-1.2-5.5-4.9   c-4.3-5.1-6.5-6.5-11.5-7.3c-3.7-0.6-6.8,0.1-8.1,1.7c-0.7,0.9-0.7,0.7-0.1,5c0.1,0.6,0,1.3-0.1,1.5c-0.5,0.7-2.4-0.1-4.8-2   c-5.1-4.2-11.5-6.1-19.9-6.1c-5.7,0-7.8,0.4-11.7,2.5c-3.5,1.8-5.5,3.6-6.6,5.9c-0.7,1.5-0.8,2.1-0.8,4.3c0,1.4-0.1,2.5-0.1,2.5   c-0.5,0-2.8-2.1-7.1-6.5c-4.5-4.6-5.3-5.3-7.2-6.2c-2-1-2.4-1-5.2-1c-3.5,0-4.2,0.3-7.6,2.8c-3.3,2.4-4.5,5-5.9,12.6   c-1,5.3-2.5,11.3-4.2,16.8c-1.3,4.3-3.9,11.3-4.3,11.7c-0.3,0.4-1.8-1.5-2.7-3.5c-0.7-1.5-0.8-2.1-0.8-4.9c0-2.9,0.1-3.7,1.6-8.9   c2.5-9,3.5-14.1,3.5-19.8v-3.3l-1-0.8c-1.5-1.3-4.3-2.5-6.5-2.9c-3.8-0.7-7,0.7-8.9,3.6c-1.1,1.7-1.5,3.6-1.8,7.2l-0.2,2.8   l-1.9-1.3c-1.3-0.8-2.9-2.4-4.7-4.6c-1.5-1.8-3.6-4-4.5-4.7c-3.6-2.8-7.5-4.2-11.5-3.8c-3.7,0.3-6,1.9-10.6,7.2   c-4,4.7-4.7,5.1-6.7,4.9c-2.5-0.3-5.3-1.8-7.8-4.3c-3.9-3.8-5-5.7-7.8-13.6c-2.2-6.4-3.7-9.4-5.9-11.7c-2.1-2.2-2.8-2.4-5.3-1.2   c-2,1-4,3.1-5.3,5.5c-1.7,3.3-1.9,4.8-2,13.8c-0.1,8-0.1,8.2-0.9,9.7c-0.4,0.8-1.4,2.1-2.1,2.8c-1.1,1-1.7,1.4-3.3,1.7   c-3.1,0.6-8.7-0.1-11.2-1.4c-0.8-0.4-0.8-0.4-1.2,0.8c-2,7.4-4.5,19.9-5.3,26.4l-0.5,3.9l4.2,4.2c2.3,2.3,5.1,5.3,6.3,6.6   c1.1,1.3,2.1,2.4,2.3,2.4s0.6-0.3,0.9-0.7c1.3-1.4,2.3-1.4,3,0.1c0.8,1.7,0.6,2.5-1.3,4.2c-1.4,1.2-1.8,1.8-1.7,2.5   c0,0.5,0,1.7,0.1,2.6c0,1.3-0.1,2.1-0.8,3.4c-1,1.9-1.5,2.1-3.3,1.5c-2.4-0.8-3.8-3-4.3-6.8c-0.2-1.7-0.2-1.7,0.8-2.6   c0.6-0.5,1.8-1.3,2.6-1.8l1.6-0.8l-1-1.4c-2.3-3.3-9.5-10.2-10.1-9.8c-0.1,0.1-0.3,0.6-0.3,1.1s-0.5,3.8-1.1,7.2   c-1.8,10.9-2,11.6-2,13c0,2.3,0.4,2.5,1.9,0.8c0.7-0.8,1.7-1.5,2.2-1.7c1.1-0.3,1.2-0.8-1.5,6.3c-3.8,10.1-5.7,14.9-6.7,16.4   l-1,1.5l-0.7-1.7c-0.4-0.9-1.1-2.5-1.7-3.6c-1.1-2.3-1.2-3.7-0.4-5.7c0.7-1.7,1.3-5.6,2-12.1c0.6-5.2,1.7-13.3,2.8-20.9l0.8-5.3   l-0.8-1c-0.5-0.5-2.9-2.6-5.5-4.7c-6.5-5.4-6.8-5.6-6.5-5.8c0.5-0.4,4.8,2.1,9.1,5.1l4.2,3.1l0.2-0.8c0.1-0.5,0.6-3.2,1-6.1   c0.5-2.9,1.6-9,2.5-13.6s1.7-8.6,1.7-8.9c0-1-5.8-4.2-12.6-7.1c-4.8-2-6.9-2.5-10.7-2.7c-3.3-0.2-3.5-0.1-3.3,0.4   c0.7,1.8,1.7,5,2,6.6c0.5,2.8,0.5,8-0.1,10.6c-0.7,2.7-2.7,7-3.8,7.8c-1.1,0.9-2,0.8-4.2-0.3c-4.9-2.6-8.9-8.3-10.9-15.5   c-0.8-2.8-0.9-7.6-0.3-9.9c0.3-1.1,0.5-2,0.5-2.1c0-0.3-3.9-0.8-6-0.8c-4.2,0-8,1.5-10.3,4c-2.5,2.7-3.8,6.6-6.4,19.8   c-1.9,9.6-2.8,13.1-4.4,16.9c-0.5,1.3-1.5,4.1-2.3,6.3c-1.4,4-3,7.6-4.2,9.3c-0.3,0.5-1,1.6-1.4,2.4c-0.4,0.8-0.9,1.6-1.1,1.6   c-0.4,0.1-2.2-4.5-2.5-6.7c-0.2-1.2-0.1-2,0.1-2.8c0.8-2.3,4.8-13,7.2-19.5c4.2-11.5,5-15.6,3.6-18.4c-0.7-1.5-8.5-9.3-12.1-12.1   c-1.4-1.1-4.3-3.1-6.5-4.4c-7.3-4.5-11.1-6.1-15.4-6.5c-2-0.2-2.4-0.1-3.8,0.6c-1.8,0.9-2.7,2-3.6,4.5c-0.8,2.1-1.2,5.6-0.6,5.6   c0.9,0,4.3,1.9,5.7,3.1c0.8,0.7,2.3,2.4,3.3,3.8c2,2.7,3.9,4.8,4.3,4.8c0.1,0,0.3-0.2,0.3-0.4c0-0.8,1.9-3,3.4-3.9   c5.2-2.9,11.7-1.2,13.8,3.7c2.4,5.6,1.8,15-1.1,18.5c-0.7,0.8-0.8,0.9-1.2,0.4c-0.7-1-1.8-4.2-2-6c-0.3-1.9,0-4.2,0.8-5.6   c0.3-0.5,0.5-1,0.5-1.2c0-0.5-2-0.9-4.1-0.9c-2.5,0-4.3,0.7-5.5,2.1s-1.3,2.6-0.5,5.4c0.8,2.9,0.8,3.5,0.2,3.5c-1,0-2.6-2-4.4-5.5   c-2.7-5.1-5.8-8.6-9.5-10.4c-3.3-1.6-8.1-0.4-10.1,2.5c-0.7,1-0.8,1.6-1,3.9l-0.1,2.6l-1,0.1c-0.8,0.1-1.2-0.2-3.1-2.3   c-3.8-4.3-8.3-7.4-12.6-8.6c-1.3-0.4-2.5-0.5-4.6-0.4c-2.6,0.1-3,0.2-5.4,1.4c-3.9,2-5.8,3.7-8.2,7.2c-3.8,5.8-5.6,7.6-8,7.6   c-4,0-10.5-5.4-13.2-11.2c-0.7-1.4-2-5-3-8.1s-2.2-6.5-2.6-7.5c-1.7-3.8-4.6-7-6.4-7c-0.4,0-1.4,0.4-2.3,0.9   c-5.1,2.9-7.4,9.2-8,21.5l-0.2,4.4h0.7c1.3,0,3.7,1.8,4.6,3.5c1.9,3.5,2.6,7.6,1.7,9.8c-0.3,0.6-0.5,1.1-0.6,1.1s-0.4-0.6-0.8-1.4   c-0.8-1.8-2-2.6-3.6-2.6c-1.7,0-2.9,1-4,3.5c-2.3,4.8-2,9.9,1.4,22.7c2.3,8.9,3.1,12.9,2.3,12.9c-0.4,0-2-2.4-2.7-4.3   c-0.9-2.3-4.2-14.9-5.1-19.8c-2.4-12.2-1-21.3,3.8-24.6c0.8-0.6,1.3-1.1,1.2-1.4c-1-3.2-1-12.4,0-17.1c1-4.9,3-9.5,5.5-12.3   c2.7-3.1,7.8-4,11-1.9c1.3,0.8,3.5,5.3,5.4,11c2,5.7,2.7,7.5,4.3,10c2.4,3.9,7,7.5,9.7,7.5c1.6,0,2.7-1.1,4.8-4.6   c2.2-3.8,6.2-7.8,9.1-9.2c5.2-2.5,10.8-2.5,16.1-0.1c1.3,0.6,3.1,2,5.8,4.5c5.1,4.6,5,4.6,5.3,2.6c0.2-0.8,0.7-2.2,1.1-3   c0.9-1.7,3.8-4.4,5.3-5c0.6-0.2,1.1-0.5,1.1-0.7c0-0.1-0.2-1.5-0.5-2.9c-0.7-3.7-0.5-9,0.5-11.5s3-4.6,5.4-5.3   c4.2-1.2,9.5,0,15.9,3.7c8.9,5.1,14,8.9,19.4,14.4c4,4.1,4.7,5.1,5.7,8.8c0.9,3.4,1,3.5,1.5,1.3c0.5-2.8,2.1-7.5,3.2-9.6   c2.9-5.9,7.5-8.9,13.5-8.9c3.3,0,5.4,0.5,11.3,2.9l4.7,1.9l2.2-0.5c8.9-2.1,12.3-1.4,24.1,4.6c6.9,3.5,11,5.3,12.1,5.3   c0.3,0,0.7-0.3,0.8-0.6c0.4-1.3,3.9-6.3,5.7-8c2.3-2.3,4.5-3.4,6.6-3.4c2.3,0,3.1,0.4,4.8,2.2c1.2,1.3,1.5,1.5,1.5,1   c0-0.4,0.4-2.3,0.9-4.3c1.8-7.3,5.2-12.4,9.3-13.9c2.9-1.1,4.6-0.8,7,1.4c1.7,1.5,2.6,3.5,4.8,9.7c2.5,7.4,3.7,9.6,6.3,12   c2.2,2.1,5.2,3.8,7.2,4.2c1.4,0.3,2.5-0.7,5.6-4.5c4.5-5.5,6.4-6.8,10.4-7.4c6.5-0.9,13.3,2.4,17.4,8.5c1.6,2.4,2.6,3.5,3.7,3.8   c0.5,0.2,0.7,0,1.1-1.1c1.3-3.2,3.2-6.7,4.4-7.9c3.2-3.2,8.2-3.6,13.3-1c2.7,1.4,4,3,5.1,6.3c0.5,1.6,1.3,3.3,1.7,3.9l0.7,1   l1.1-2.3c3.1-6.5,6.6-9.5,11.8-10.3c2.7-0.4,5.3,0,8.1,1.3c1.6,0.8,2.8,1.7,6.3,5.3c5.8,5.8,5.3,5.5,6,3.7   c4.4-10.2,18.5-15,30.6-10.6c1,0.4,3.7,1.7,5.9,2.9c5.1,2.8,5.5,2.9,5.5,2c0-1,1.7-3.8,2.9-4.7c5-3.8,14.6-0.8,20.6,6.5l1.4,1.6   l0.3-1.4c0.8-3.4,2.3-5,5.4-5.8c4.5-1.1,5.7-0.5,11.1,5.8l1.3,1.5l0.5-0.8c1.3-1.9,4-4.4,5.5-5.1c4.7-2.2,12.4-1.1,20.5,3   c1,0.5,4.7,2.7,8.3,4.8c5.7,3.4,9.3,5.3,11.7,6c0.7,0.2,0.7,0.2,0.5-4.2c-0.2-5.3,0.2-8.4,1.6-12.8c2-5.8,4.9-9.7,8.8-11.7   c2.4-1.2,3.5-1.2,5.2-0.1c2.6,1.7,4,4,6.1,10.1c0.7,2,1.7,4.4,2.2,5.4c3.6,7.1,10.2,12.8,13.8,12c1.4-0.3,2.7-1.6,5-5.2   c1.2-1.8,2.7-3.8,3.4-4.4c3.8-3.3,10.3-4.3,16.1-2.3c4,1.4,6.6,3.3,8.7,6.4c1.5,2.2,2.2,3.1,3.4,3.9l0.8,0.6l0.4-1.3   c0.5-2.1,1.4-3.6,3.1-5.3c1.8-2,3.5-2.8,5.8-3.1c3.9-0.5,6.7,1.3,10.3,6.5c2.2,3.2,3.1,4.2,3.3,3.5c0.1-0.3,0.3-1,0.5-1.7   c1.2-4.6,6-7.7,12-7.6c4.7,0,9,1.5,16.4,5.7c2.2,1.3,5.3,2.9,6.7,3.6c3,1.4,2.5,1.6,6.5-2c2.9-2.7,4-3.3,6.5-4   c3.2-0.8,7.5-0.2,11.2,1.7c4.5,2.2,8,5.1,8.9,7.1c1.3,3.1,2.5,13.4,2.2,18.4c-0.4,7-2.1,18.3-3.9,25.9c-0.5,2.2-1.3,6-1.7,8.4   s-1.1,6.1-1.5,8.3c-0.4,2.2-0.8,5-0.8,6.3v2.3l1.8-1.7c4.2-4,3.8-1.7-1.7,11.5c-2.3,5.5-3.8,8.6-5,10.1l-0.6,0.8l-0.4-1.1   c-0.3-0.5-1-2.6-1.6-4.5l-1.1-3.5l0.6-2c0.3-1.1,0.9-4.3,1.2-7.1c0.8-6.2,3-18.8,5.9-33.7c2.6-13.5,3.8-20.5,4.6-26.6l0.6-4.6   l-0.8-0.8c-1.9-2-6.5-4.7-9.7-5.6c-2.6-0.8-5.9-0.5-8.2,0.6c-1,0.5-2,1.1-2.3,1.4c-0.5,0.5-0.3,0.7,2.4,2.5s8.6,4.9,9.4,4.9   c0.8,0,3.2,6.1,3.2,8.1c0,0.9-0.2,1.1-1.8,2c-10.6,5.5-28.9,5.3-41.1-0.5l-2.5-1.2l-1.3-2.9c-1.5-3.3-2.1-5.3-1.8-6.3   c0.1-0.6,0.3-0.7,1.3-0.4c0.6,0.2,1.8,0.7,2.7,1c0.8,0.4,2.2,0.8,2.9,0.8c2.7,0,7.2-2,11.3-5c2.5-1.8,2.5-1.7-1.5-3.6   c-5.5-2.6-10.4-3.8-15.7-3.8c-4.6,0-6.6,0.7-8.8,2.9c-1.7,1.7-2.4,3.7-2.4,6.6v2l-0.9-0.5c-1.2-0.7-2.2-1.9-4.2-5.3   c-2.1-3.6-3.4-5-5.2-5.9c-2.9-1.4-7.2-0.7-9.5,1.6c-1.5,1.4-1.8,2.6-1.2,4.8c0.6,2.4,0.6,4.3,0,4.6c-1,0.4-3.7-2-6.9-6.3   c-2-2.7-4.2-4.6-6.5-5.7c-5-2.5-10.8-2.8-14.9-0.8c-2,1-5.1,4.1-6.3,6.3c-1.6,3.2-4.7,5.4-7.4,5.4c-3.9,0-9-4.6-13.8-12.5   c-1.2-2-1.7-3.3-2.5-6.3c-1.3-5-3.2-8.9-5.3-11.1c-0.9-1-2.1-1.9-2.7-2.1c-0.9-0.4-1.1-0.3-2.4,0.3c-3.3,1.8-6.3,6.2-7.5,11.1   c-0.7,2.9-1.2,8.4-1,10.8l0.2,2.1l2.2,0.5c1.8,0.4,6.7,1.1,7.6,1.1c0.1,0,0.3-2.6,0.4-5.7c0.3-9,0.5-9.9,1.8-8.5   c0.5,0.6,1.8,6.7,2.4,11.3c0.4,3.2,0,2.9,4.2,3.5c2.5,0.4,2.6,0.5,3.5,1.6c1.3,1.8,2.2,4.7,2.1,7l-0.1,2h-1.8c-1,0-3.2-0.1-4.8-0.3   l-3-0.3l-0.2,1.2c-0.1,0.7-0.5,4.1-1,7.7c-0.4,3.6-1.5,11.7-2.4,18s-1.6,11.5-1.6,11.5c0.8,0.5,6.7,4.9,9.1,6.7   c4.3,3.3,11.4,10.3,14.5,14.2c1.4,1.8,2.6,3.2,2.8,3.2c0.1,0,0.7-0.3,1.3-0.7l1.1-0.7l0.6,1c0.3,0.5,0.7,1.5,0.8,2.1   c0.2,1,0.1,1.2-1.2,2.4l-1.4,1.3v3.6c0,4-0.4,5.3-1.7,6.2c-2,1.3-5.6-1.3-6.9-4.9c-1.3-3.3-0.7-4.5,3.2-7c0.8-0.5,1.6-1.2,1.6-1.5   c0.3-1.3-6.8-8.5-17.6-18.3l-6.5-5.8l-0.8,4c-2,9.3-2.5,13.7-1.9,13.7c0.1,0,0.9-0.7,1.8-1.5c2-1.8,2.7-2,2.4-0.5   c-1,4.3-6.1,16.7-8.5,20.3c-1,1.5-1.4,1.8-1.4,1c0-0.2-0.5-1.6-1.3-3.1c-1.7-3.6-1.9-5.6-0.8-7.7c1-2.1,1.3-3.7,1.9-10   c0.5-5.2,1-8.5,4.5-30.1c2.1-13,4-25.9,3.8-26.1c-0.3-0.3-14.3,0.6-18.3,1.1c-5.6,0.7-7.5,1.1-7.5,1.7c0,0.3,0.3,1.7,0.5,3.2   c1.5,8.3,1,14.7-2.9,33c-2.2,10.4-3.3,18-2.7,18c0.2,0,1-0.5,1.8-1.2c2.7-2.1,2.9-1.6,1.4,2.8c-1.6,4.7-8,19-8.7,19.6   C467.8,4810.8,467.4,4810.2,466.5,4807.9z M529.7,4804.7c0.6-1,1.1-3,0.8-3.3c-0.2-0.2-2.7,1.5-3.3,2.2c-0.3,0.4-0.3,0.7,0,1.3   C527.9,4806,529,4805.9,529.7,4804.7z M217.4,4778.2c0.5-0.6,0.8-2.1,0.4-2.1c-0.1,0-2,1-2.5,1.4c-0.1,0,0,0.4,0.3,0.7   C215.9,4779.1,216.6,4779.1,217.4,4778.2z M636,4733.7c1.7-0.3,3-0.7,3.1-0.7c0.1-0.1-0.9-0.7-2.2-1.4c-1.2-0.7-2.8-1.7-3.6-2.2   c-0.7-0.5-1.4-0.9-1.6-0.9c-0.4,0-4.6,4.6-4.6,5c0,0.3,0.3,0.5,0.5,0.6C629.1,4734.5,633.3,4734.3,636,4733.7z M175.9,4726.5   c1.5-2.3,2.7-5.2,2.8-6.4c0-1.1-0.6-2.3-1.9-3.5c-2.7-2.6-5.5-2.6-8.4-0.1c-2.9,2.6-2.7,5.7,0.7,8.6c1.3,1.1,4.8,3.4,5.3,3.4   C174.5,4728.5,175.1,4727.6,175.9,4726.5z M224.4,4716c1.8-0.5,2.5-1.3,2.7-3l0.2-1.1h-1.8c-1.1,0-2.3,0.3-3.1,0.6   c-1.3,0.5-4.1,3.1-4.1,3.7C218.3,4716.7,222.7,4716.5,224.4,4716z"></path>
        <path class="st0"
              d="M369.2,4808.9c-2-1.4-4-3.9-5.2-6c-0.5-1-0.9-1.8-0.9-2s2.7-0.1,6.1,0c5.7,0.2,8,0.1,8-0.4   c0-0.1-3-1.7-6.8-3.5c-5.1-2.5-6.9-3.6-7.4-4.3l-0.7-1l1.1,0.2c4.5,0.9,9.5,1.7,10.4,1.7s1.7,0.4,4.2,2.2c5.7,4,8.6,7.6,9,11.1   l0.1,1.4l-1.5,0.5c-2.5,0.8-5.3,1.1-10.3,1.1h-4.8L369.2,4808.9z"></path>
        <path class="st0"
              d="M666.6,4809.3c-0.3-0.5-1.1-2.3-1.8-4.1c-1-3-1.1-3.5-0.8-4.6c0.8-2.9,1.6-7.2,2.3-13.2   c0.4-3.5,1.3-9.2,1.8-12.5c3.3-18.7,7.6-51.9,7.6-59.2c0-3.1,0.5-6.9,0.9-6.9c0.6,0,1.7,1.7,2.2,3.3c2.2,7,1.5,21.7-2,44.2   c-0.8,4.9-1.9,11.9-2.5,15.5c-1.3,8.3-2.4,17.5-2.2,17.8c0.1,0.1,0.8-0.4,1.5-1.1c1.4-1.4,2.5-2.1,2.8-1.7c0.2,0.4-1.6,5.5-4,11.7   c-1.2,2.9-2.5,6.4-3,7.6c-0.5,1.3-1.1,2.6-1.5,3l-0.7,0.8L666.6,4809.3z"></path>
        <path class="st0"
              d="M340.5,4804c-35.1-11.7-56-19.2-70.4-25.3c-3.4-1.4-7.3-3.1-8.8-3.7c-5.6-2.3-7.2-3.6-8.1-6.3   c-0.7-2.1-0.6-3.3,0.1-4.7c0.9-1.8,2.7-2.9,4.8-2.9c0.8,0,1,0.1,1.3,0.9c0.5,1.3,0.4,2.9,0,3.3c-0.2,0.2-1.1,0.5-2,0.8   s-1.7,0.7-1.8,0.8c-0.6,1,6.1,4.4,16.2,8.2c4,1.5,10.1,3.9,13.6,5.3c6.7,2.8,16,6.1,35.2,12.5c6.4,2.2,12.5,4.3,13.4,4.7   c0.9,0.4,2.4,0.9,3.2,1.1c2.1,0.5,18.2,5.5,19.2,6.1c0.7,0.3,0.9,0.7,1,1.8c0.2,1.3-0.2,2.7-0.7,2.6   C356.6,4809.3,349.3,4806.9,340.5,4804z"></path>
        <path class="st0"
              d="M142.8,4806.4c-4-1.3-17.6-5.2-30.1-8.9c-31.7-9.2-41.2-12.1-55.8-17c-6.9-2.3-7.3-2.5-8.4-3.8   c-3.2-3.6-3.6-7.9-0.8-9.4c1.1-0.6,3.8-1.3,5-1.3c0.7,0,1.3,1.8,1.2,3.3c-0.1,1-0.1,1.1-2.2,1.6c-1.1,0.3-2.3,0.7-2.6,1   c-0.4,0.4-0.3,0.5,1,1.4c1.8,1.1,2.4,1.3,16.3,5.8c15.5,5,22.5,7.2,44.6,13.4c22.1,6.3,25.4,7.3,33.6,10l5.6,1.9l0.7,1.6   c0.7,1.7,0.6,2.6-0.1,2.5C150.4,4808.7,146.8,4807.6,142.8,4806.4z"></path>
        <path class="st0"
              d="M56.2,4805.1c-3.4-6.4-3.5-6.8-3.5-9.3v-2.3l1.2-0.2c0.6-0.1,1.2-0.3,1.3-0.3c0.3-0.3-4-4-8.9-7.7   c-4.2-3.2-18.5-12.8-22.1-15c-1.4-0.8-2.9-2.1-2.9-2.5c0-0.7,13.9,6.5,20.1,10.4c5.8,3.6,13.2,9.3,16.1,12.5l0.7,0.8l1.7-0.9   c4-2,6-1.4,6.6,2.2c0.5,2.7-0.9,6-4.7,11.3c-2.2,3-2.6,3.5-3.4,3.5C57.6,4807.5,57.4,4807.2,56.2,4805.1z M58.5,4798.2   c0.4-1.5,0.2-1.7-1-1c-1.1,0.6-1.4,1.2-0.9,1.9C57.3,4799.9,58.2,4799.5,58.5,4798.2z M62.2,4796.8c0.5-0.7,1.6-2.5,1.4-2.7   c-0.1-0.1-0.7,0.2-1.5,0.6c-1.4,0.7-1.8,1.4-1.2,2.2C61.4,4797.5,61.6,4797.5,62.2,4796.8z"></path>
        <path class="st0"
              d="M182.8,4803.5c-3.2-1.3-9.2-3.6-13.2-5.1c-23.6-8.6-22.3-8.1-22.8-9.3c-0.3-0.6-0.5-1.6-0.7-2.3l-0.2-1.1   l4.6,1.6c6.6,2.3,17,6.2,28.2,10.7c7.4,2.9,9.9,4,10.3,4.6c0.7,1,0.7,3.3,0.1,3.3C188.8,4805.9,186,4804.8,182.8,4803.5z"></path>
        <path class="st0"
              d="M31.9,4804.1c-1.1-1.2-2.2-4.2-3-8c-0.2-0.9-0.5-2.2-0.7-2.9l-0.3-1.2l-1.1,2.8c-1.7,4.2-3,5.9-5.5,7.1   c-2.2,1-3.1,1-3.5-0.3c-0.5-1.8-0.7-3.5-0.4-4.3c0.4-1,2.1-2,4.3-2.4c1.4-0.3,1.6-0.5,2.3-1.8c0.4-0.8,1.1-2.6,1.6-4s1.2-3,1.7-3.5   l0.8-1l0.6,1.2c0.8,1.6,0.9,2,1.5,6.6c0.5,4.2,1.4,6.7,2.8,7.4c0.7,0.4,0.8,0.3,1.5-0.3l0.7-0.7l0.7,0.8c0.9,1.2,0.8,3.7-0.3,4.9   C34.5,4805.8,33.1,4805.6,31.9,4804.1z"></path>
        <path class="st0"
              d="M228.3,4804.5c-0.4-0.6-2.9-7.1-3.1-7.8c-0.1-0.6,0.1-1.4,0.6-2.7c0.5-1.2,1-3.4,1.4-6.3   c0.3-2.4,1.8-10.5,3.3-18c3-14.9,7.5-41,8.8-51c0.4-3.5,1-8.5,1.2-11.2l0.4-4.9l0.8,0.9c0.5,0.5,1.1,1.8,1.4,2.8   c2.7,8.3,1.1,25.6-5.5,58.9c-2,10.3-3.1,17.3-2.7,17.7c0.3,0.3,1.3-0.3,2.9-1.8c1-0.9,1.5-1.1,1.6-0.8c0.1,0.8-4.1,11.3-6.5,16.1   c-1.3,2.5-2.6,5.5-3,6.5C229.2,4804.5,228.7,4805.1,228.3,4804.5z"></path>
        <path class="st0"
              d="M637.5,4795.6c-7.5-2.7-19.4-6.6-33.7-11c-23.3-7.2-33.4-10.6-43-14.7c-4.2-1.8-4.5-2-4.8-4.6l-0.2-1.4   l1.8,0.8c9.3,4.2,21.5,8.3,49.2,16.7c17.7,5.4,32.9,10.3,33.5,10.8c0.5,0.4,0.8,2.2,0.5,3C640.5,4796.3,639.8,4796.4,637.5,4795.6z   "></path>
        <path class="st0"
              d="M449.9,4792.8c-2-1.2-4.2-4.9-4.2-6.9c0-1.4,0.7-2.3,3.2-3.8c0.9-0.6,1.8-1.2,1.9-1.4c0.4-0.7-4.2-5.7-9.1-9.9   c-1.8-1.6-5.3-4.4-7.8-6.3c-7.1-5.5-13.3-10.5-13.2-10.6c0.3-0.3,2.7,1,5.9,3.1c1.9,1.2,4.8,3.2,6.5,4.3c8,5.3,16,12.5,20,18.3   c0.1,0.1,0.7-0.3,1.3-0.8c0.8-0.6,1.5-1,1.9-0.9c0.8,0.1,1.5,1.3,1.5,2.7c0,0.9-0.2,1.3-1.1,2.1c-0.6,0.5-1.2,1-1.4,1   c-0.8,0-1.2,1.9-1.2,5c0,2.8-0.1,3.3-0.7,4C452.7,4793.5,451.3,4793.6,449.9,4792.8z M451.3,4787.9c0.6-0.7,0.9-2.3,0.5-2.3   s-1.9,0.9-2.3,1.4c-0.3,0.4-0.3,0.6,0.1,1.1C450.4,4788.9,450.5,4788.9,451.3,4787.9z"></path>
        <path class="st0"
              d="M127.9,4790.7c-0.5-1.4-0.3-3.4,0.6-6c1.2-3.2,1.2-5,0.1-5.7c-0.4-0.3-1.3-0.5-2-0.7c-1-0.1-1.3-0.1-1.8,0.7   c-0.5,0.7-0.5,1-0.2,2.9c0.7,3.9,0.3,6.1-1.1,6.1s-2.4-1.6-2.9-5.3c-0.2-1-0.1-1.1,0.6-1.3c0.7-0.2,0.8-0.3,0.8-2.3   c0-2.7,0.8-4.4,2.3-5.1c2-0.9,4.8-0.1,6.7,2l0.9,0.9l1-0.9c3.9-3.4,8.4-0.3,7.2,5c-0.3,1.6-4.5,10.4-4.9,10.4c-0.5,0-1-2.7-0.8-4   c0.1-0.7,0.8-2.6,1.6-4.2c0.7-1.6,1.4-3,1.4-3.1c0-0.5-1.7-0.3-2.7,0.3c-1.4,0.8-1.8,1.7-3.2,5.7c-0.8,2.3-1.5,3.9-2,4.5   C128.5,4791.7,128.3,4791.7,127.9,4790.7z"></path>
        <path class="st0"
              d="M402.2,4779.8c-1.3-2-2.3-4-3.7-7.8c-0.7-1.8-2-5.3-2.9-7.5c-2-5-2.6-7.1-3-11.6c-0.6-5.5,0.4-11,2.4-13.3   c0.9-1.1,2.5-1.9,3.9-1.9c1.5,0,4,1.3,5.1,2.6c2.1,2.5,4,8,4,11.3v1.5l-0.8-0.7c-0.4-0.4-1.2-1.4-1.7-2.3c-1.2-2.2-2.2-2.9-4-2.9   s-3.1,1-4.1,3c-0.7,1.3-0.7,1.9-0.7,5c0,4.4,0.5,6.4,3.8,15.1c2.2,5.9,3.5,10.2,3.1,10.6C403.4,4781.2,403.1,4781,402.2,4779.8z"></path>
        <path class="st0"
              d="M112.5,4778.8c-5-2-12.4-4.5-24.6-8.1c-19.4-5.8-32-10.3-34.6-12.3c-1.2-0.9-2-2.5-2-4v-1.1l2.4,1.1   c7.5,3.5,16.5,6.7,37.7,13.3c10.6,3.3,19.8,6.5,21.3,7.4c1.4,0.9,3.1,3.9,2.4,4.4C114.9,4779.7,113.8,4779.3,112.5,4778.8z"></path>
        <path class="st0"
              d="M304.5,4769c-1.8-2.8-2.3-3.8-2.7-5.5c-0.1-0.7,0-0.9,1.4-1.8c4.2-2.7,6.5-4,7-4c1.1,0,3.4,4.6,3.8,7.5   l0.2,1.5l-3.8,2.5c-2.1,1.4-3.8,2.5-3.9,2.5C306.4,4771.8,305.5,4770.5,304.5,4769z"></path>
        <path class="st0"
              d="M36.7,4764c-0.5-0.5-1.5-2.1-2.2-3.3c-0.7-1.3-1.4-2.4-1.6-2.5c-0.2-0.1-2.2,1-4.6,2.6   c-4.9,3.2-4.3,3.2-6.8-0.4c-1.7-2.5-2.9-5.7-2.3-5.9c0.2-0.1,1.7-1.2,3.3-2.5c1.6-1.4,3.3-2.6,3.8-2.9c2.1-1.1,3.2-0.3,4.7,3   c1.2,2.6,2,3.4,3.1,3.1c0.5-0.1,2.2-1.1,3.8-2.3c1.6-1.2,3.2-2.1,3.5-2.1c0.8,0,4.9,6.8,4.9,8.4c0,0.5-4.2,3.9-6.2,4.9   C37.7,4765.1,37.6,4765.1,36.7,4764z"></path>
        <path class="st0"
              d="M172.6,4759.7c-0.5-0.5-1.5-1.8-2.2-2.8s-1.5-2.2-2-2.5l-0.7-0.7l-2.9,2.4c-3.9,3.2-4.2,3.4-5,2.5   c-2.3-2.8-5-7.8-4.4-8.3c3.3-2.9,7.5-5.8,8.2-5.8c0.6,0,1.7,1.4,3.5,4.3c0.8,1.4,1.6,2.5,1.7,2.5c0.1,0,1.4-0.9,2.9-2   c2.9-2.2,4.5-3.1,4.7-2.7c0.1,0.1,0.8,1.2,1.6,2.3c1.5,2.1,3,5,3,5.8c0,0.5-0.7,1.1-4.1,3.7S173.6,4760.9,172.6,4759.7z"></path>
        <path class="st0"
              d="M522.4,4759.9c0-0.2-1.1-1.5-2.4-2.9c-3.6-3.9-3.9-5.5-1-7.2c0.8-0.5,2.3-1.7,3.4-2.6c1.5-1.4,2.1-1.8,2.9-1.8   c1.5,0,2.3,0.7,3.6,3.4c0.7,1.3,1.4,2.4,1.6,2.4c0.5,0,2.2-1,5.3-3l3-2.1l1.5,1.7c0.8,0.9,2,2.5,2.4,3.5c1,2,1.5,4.2,1,4.2   c-0.1,0-1.8,1-3.7,2.3s-3.8,2.3-4.2,2.3c-0.5,0-1.2-0.7-2.9-3.2l-2.2-3.2l-2.3,1.9C525.1,4758.3,522.4,4760.3,522.4,4759.9z"></path>
        <path class="st0"
              d="M263.4,4756.1c-1.1-1.5-2.1-3-2.3-3.2c-0.3-0.4-1,0-4.5,2.3c-2.3,1.5-4.3,2.8-4.5,2.8c-0.7,0-3.3-4.1-4.4-6.8   c-0.6-1.5-0.7-1.8-0.3-2.3c0.8-1,8.6-6,9-5.8c0.5,0.2,2.2,2.4,3.1,4.2c0.4,0.8,0.8,1.5,1,1.6c0.5,0.3,3.5-1.2,5.7-2.9   c1-0.8,2.1-1.5,2.2-1.6c0.2-0.1,1.1,1,2.1,2.4c2.6,3.9,3.2,5.9,2.1,7.2c-0.5,0.7-4.6,3.5-6.5,4.4l-1,0.5L263.4,4756.1z"></path>
        <path class="st0"
              d="M586.2,4758.1c-0.3-0.3-1.4-1.9-2.4-3.5l-2-3l-4.1,2.9c-3.2,2.3-4.2,2.9-4.5,2.5c-0.9-1-4.5-6.5-4.6-7.2   c-0.3-1.2,0.4-2.2,2.4-3.5c1-0.6,2.4-1.7,3.2-2.3c1.5-1.3,3-1.6,4-0.8c0.3,0.3,1.1,1.7,1.9,3.1c0.8,1.5,1.5,2.7,1.7,2.7   s1.7-1,3.5-2.1c4.3-2.9,4.3-2.9,5.7-1.2c1.4,1.6,3.3,5.3,3.4,6.6c0.1,0.8-0.1,1.1-2.4,2.5c-1.4,0.9-3.1,2.1-3.9,2.7   C586.8,4758.5,586.6,4758.5,586.2,4758.1z"></path>
        <path class="st0"
              d="M286,4744.7c-0.2-0.3-0.5-1.1-0.5-1.9c-0.1-1.1,0-1.8,1-3.7c1.5-3.1,1.5-4.6,0.1-5.8c-0.8-0.7-1.2-0.8-2.2-0.7   c-1.3,0.2-2.3,0.9-2.7,2c-0.2,0.5-0.1,1.1,0.4,2.2c0.8,1.9,0.9,4.7,0.1,6.3c-0.3,0.7-0.7,1.1-0.8,0.9c-0.7-0.7-1.6-4.8-1.8-7.7   c-0.3-4.9,0.7-7.6,3.1-8.4c1.7-0.5,2.9-0.1,5,2l2,1.8l1.2-1.1c1.5-1.3,3-1.7,4.5-1c2.6,1.1,2.7,5.4,0.2,11.5   c-0.5,1.2-1.2,2.7-1.6,3.2l-0.7,0.9l-0.5-0.8c-0.3-0.5-0.5-1.7-0.5-2.6c0-1.6,0.3-2.3,2.1-6.5l0.5-1.2l-0.8,0.2   c-2.5,0.6-3.3,1.5-4.7,5.9C288.1,4743.5,286.7,4745.5,286,4744.7z"></path>
        <path class="st0"
              d="M80,4707.3c-0.3-0.8-0.7-2-0.7-2.6c0-1-0.1-1.1-0.8-1.1c-1.2,0-1.6,0.5-1.6,2c0,0.7-0.2,1.5-0.4,2   c-0.4,0.7-0.4,0.7-1.8-0.8c-0.7-0.8-1.9-2.1-2.5-2.9c-0.7-0.8-1.8-1.8-2.5-2.1c-1.1-0.6-1.5-0.7-4-0.4c-4.7,0.4-5.3,0.3-7.9-0.8   c-2.8-1.3-4.7-2.7-9.8-7.1c-4.4-3.8-8.9-6.8-12.8-8.9c-2.5-1.3-4.7-2.9-4.7-3.6c0-0.3,4.4,1,7.8,2.2c3.3,1.2,6.1,2.9,9.5,5.8   c6.6,5.6,8.7,7,11.7,7.9c1.5,0.5,2.2,0.5,4.1,0.2c4.7-0.7,6-0.4,8.7,2c0.8,0.8,1.7,1.4,1.9,1.4c0.1,0,0.8-0.3,1.4-0.8   c3.1-2.2,6.8,0.7,6.8,5.1c0,1.8-0.9,4.2-1.5,4.2C80.7,4708.8,80.3,4708.1,80,4707.3z"></path>
        <path class="st0"
              d="M660.2,4701.7c-3.3-4.9-4.3-8.3-3.5-11.4c0.9-3.3,4.5-3.4,6.4-0.1c0.7,1.2,1,3.8,0.4,3.8   c-0.2,0-0.8-0.5-1.4-1.1c-1.3-1.4-1.8-1.2-2.7,0.5c-0.7,1.4-0.5,3,1,5.5c1.8,3.3,2.2,4.3,2.2,5.2   C662.4,4705,662.2,4704.8,660.2,4701.7z"></path>
        <path class="st0"
              d="M205.7,4703.4c-0.7-0.6-2.4-2.7-3.8-4.6c-1.4-1.9-3.1-3.9-3.8-4.5c-1.8-1.3-10-5.4-15-7.5   c-2.3-1-8.7-3.5-14.1-5.6c-7-2.7-10.1-4-10.7-4.6l-0.2-0.5l0.7,0.1c0.5,0.1,1.6,0.4,2.8,0.9c1.5,0.6,3.8,1.1,7.6,1.7   c6.6,1,9.7,1.8,13.1,3.6c1.4,0.8,4.3,2.1,6.5,3c7.5,3.1,11.1,5.3,13.2,8.1l1.1,1.4l0.9-0.6c3.1-2,5.1-2.4,6.3-1.1   c1.6,1.7,1,7.9-1,10.2C208.1,4704.8,207.4,4704.8,205.7,4703.4z M207.1,4699.3c0.3-0.3,0.5-0.7,0.4-0.8c-0.2-0.2-2.4,1-2.4,1.3   C205.1,4700.2,206.6,4699.8,207.1,4699.3z"></path>
        <path class="st0"
              d="M623.9,4702.9c-0.8-0.5-2-1.4-2.4-1.9c-1.1-1.5-2.3-4.2-2.1-4.9c0.1-0.3,0.9-1.3,1.8-2.1l1.6-1.5l-1.3-1.5   c-2.6-3-4-7.1-2.7-8.5c1.6-1.8,5.6-2.3,9.5-1.3c5.7,1.4,11.5,6.1,11.5,9.3c0,0.6-0.3,0.5-2.1-0.9c-5.8-4.4-13.1-5.8-16.1-3.2   c-0.5,0.5-0.5,0.6-0.1,1.4c0.7,1.3,2.5,2.7,5.4,4.3c3.9,2.1,5.8,4.1,5.8,6v0.8l-2.2-1c-2.9-1.4-4.6-1.6-6.1-0.8   c-0.6,0.3-1.3,0.8-1.5,1.2c-0.4,0.7-0.4,0.7,0.6,1.3c1.4,0.8,1.7,0.8,2.2-0.5c0.3-0.6,0.6-1.1,0.7-1.1c0.2,0,0.7,0.5,1.3,1.1   c0.7,0.8,1,1.4,1,2.2C628.8,4704,626.8,4704.6,623.9,4702.9z"></path>
        <path class="st0"
              d="M550.6,4698.1c-2-3-3-4.9-3-5.6c0-0.6,7.9-5.8,8.8-5.8c0.4,0,4.3,6.2,4.8,7.4c0.3,0.8,0.2,1-0.4,1.5   c-0.6,0.5-7.6,4.8-8.3,5.1C552.4,4700.7,551.5,4699.5,550.6,4698.1z"></path>
        <path class="st0"
              d="M81,4694.9c-2-2.2-4.3-6.6-4.8-9.2c-0.5-2.9,0.3-5.2,2.3-6.1c1-0.4,1.2-0.4,2.4,0.1c1.8,0.7,2.7,2,2.8,4.2   c0.2,2.3-0.1,2.3-1.8,0.3c-0.7-0.9-1.4-0.8-2.4,0.3c-1.6,1.6-1.2,3.2,1.4,7c0.7,1,1.5,2.3,1.8,2.8c0.5,1.1,0.7,2.5,0.2,2.5   C82.9,4696.8,82,4696,81,4694.9z"></path>
        <path class="st0"
              d="M471.9,4695.4c-2.8-0.8-4.8-2.6-5.3-5c-0.2-1-0.2-1,0.5-0.8c0.4,0.1,1.3,0.5,1.9,0.8c0.7,0.3,2.2,0.7,3.6,0.8   c2.5,0.2,3.2-0.1,1.7-0.8c-1.3-0.6-3.8-3.2-4.5-4.5c-0.9-1.7-1.5-4-1.5-5.7v-1.4l2-1c3.6-1.8,8.1-1.5,12.4,0.7   c3.8,1.9,7.3,5.3,8.5,8.1c0.3,0.6,0.4,1.1,0.4,1.1s-1.3-0.8-2.7-1.7c-5.2-3.5-10.3-5.3-13.5-4.9c-1.4,0.2-4.3,1.5-4.3,2   c0,0.7,1.7,2.5,3.3,3.5c5.4,3.1,5.9,3.7,5.8,6.6l-0.1,1.8l-1.7,0.5C476.4,4696,473.9,4696,471.9,4695.4z"></path>
        <path class="st0"
              d="M288.1,4692.9c-0.9-1.1-2.1-2.6-2.7-3.2l-1-1.1l-1.1,0.5c-0.7,0.3-1.8,1.3-2.7,2.2c-0.8,0.9-2.1,2-2.7,2.5   l-1.2,0.9l-2.3-2.5c-4.6-4.9-4.6-5.2-0.1-8.9c1.8-1.5,3.7-2.9,4.3-3.2c1-0.5,1.1-0.5,1.8,0.1c0.5,0.3,1.3,1.5,1.8,2.6   c1,2,2.2,3.3,3,3.3c0.2,0,2-1.2,4-2.8c2-1.5,3.8-2.8,4-2.8c0.3,0,0.5,0.3,0.6,0.6c0.1,0.3,1,1.6,2,2.8c2.2,2.7,2.8,4.2,2,5.3   c-0.3,0.4-1.3,1.3-2.2,2c-1,0.7-2.5,1.8-3.3,2.5s-1.8,1.3-2,1.3C289.9,4695,289,4694,288.1,4692.9z"></path>
        <path class="st0"
              d="M460.3,4693.5c-0.1-0.3-0.5-1.4-0.8-2.3c-0.4-1.3-0.7-1.8-1-1.8c-0.8,0-1.1,0.5-1.4,2   c-0.4,2.4-0.4,2.4-1.4,1.8c-0.5-0.3-1.5-1.4-2.3-2.5c-1.6-2.2-3-3.2-4.2-3.2c-0.5,0-1.6,0.3-2.5,0.8c-1.6,0.7-1.7,0.7-3.5,0.3   c-2.9-0.7-7.7-3.3-11.1-5.8c-3.9-3-7.9-5.6-11.2-7.4c-2.4-1.3-2.5-1.4-1.9-1.8c1.1-0.5,4.8,0.3,7.2,1.5c1.2,0.6,3.9,2.4,6.1,4   c5,3.6,7.2,4.8,9.9,5c1.6,0.1,2.3,0.1,3.6-0.5c2.3-1,3.7-0.7,6.5,1.4l2.2,1.7l0.7-0.7c1.5-1.5,3.3-1.3,5.3,0.6   c2.1,2.1,2.5,5,0.9,6.9C460.7,4694.1,460.6,4694.1,460.3,4693.5z"></path>
        <path class="st0"
              d="M342.1,4689.2c-4.2-4.1-4.2-5-0.2-8.1c5.9-4.6,6.5-4.6,8.6-0.8c1.1,2.2,2.1,2.9,3.1,2.5   c0.4-0.1,1.8-1.3,3.1-2.6c2.5-2.5,3.5-2.9,4.6-2.1c0.8,0.7,3.7,4.9,4.2,6.2l0.5,1.2l-2,1.8c-2.5,2.3-5,4.2-5.4,4.2   s-2.7-2.4-4.3-4.4c-0.6-0.8-1.2-1.5-1.3-1.5c-0.1,0-1.9,1.4-4,3.1s-3.9,3-4,3C344.9,4691.8,343.6,4690.6,342.1,4689.2z"></path>
    </g>
</svg>